<?xml version="1.0" standalone="no"?>
<!DOCTYPE svg PUBLIC "-//W3C//DTD SVG 20010904//EN"
 "http://www.w3.org/TR/2001/REC-SVG-20010904/DTD/svg10.dtd">
<svg version="1.0" xmlns="http://www.w3.org/2000/svg"
 width="1024.000000pt" height="894.000000pt" viewBox="0 0 1024.000000 894.000000"
 preserveAspectRatio="xMidYMid meet">

<g transform="translate(0.000000,894.000000) scale(0.100000,-0.100000)"
fill="#000000" stroke="none">
<path d="M0 4470 l0 -4470 5120 0 5120 0 0 4470 0 4470 -5120 0 -5120 0 0
-4470z m726 3292 c19 -12 34 -49 34 -82 0 -33 -15 -70 -34 -82 -6 -4 -32 -8
-58 -8 l-48 0 0 90 0 90 48 0 c26 0 52 -4 58 -8z m582 -8 c27 -19 28 -34 2
-34 -11 0 -20 5 -20 11 0 6 -12 9 -27 7 -45 -5 -34 -31 18 -45 49 -14 62 -33
48 -70 -16 -44 -129 -38 -129 7 0 24 13 26 30 4 17 -20 64 -14 68 8 2 12 -5
19 -25 23 -59 13 -73 23 -73 54 0 48 61 68 108 35z m222 1 c0 -8 -7 -15 -15
-15 -8 0 -15 7 -15 15 0 8 7 15 15 15 8 0 15 -7 15 -15z m951 -45 c6 -33 15
-62 19 -65 3 -2 12 25 19 60 13 62 15 65 42 65 l29 0 0 -90 c0 -83 -1 -90 -20
-90 -18 0 -20 7 -21 63 l-1 62 -15 -62 c-11 -48 -19 -63 -33 -63 -13 0 -21 14
-31 63 l-14 62 -3 -62 c-2 -47 -7 -63 -17 -63 -12 0 -15 18 -15 90 0 89 0 90
24 90 22 0 26 -6 37 -60z m309 -30 c0 -73 -3 -90 -15 -90 -12 0 -15 17 -15 90
0 73 3 90 15 90 12 0 15 -17 15 -90z m480 0 c0 -73 -3 -90 -15 -90 -12 0 -15
17 -15 90 0 73 3 90 15 90 12 0 15 -17 15 -90z m456 69 c15 -17 16 -23 5 -41
-9 -15 -10 -23 -2 -31 18 -18 13 -65 -8 -77 -11 -5 -40 -10 -65 -10 l-46 0 0
90 0 90 48 0 c37 0 54 -5 68 -21z m84 6 c0 -8 -7 -15 -15 -15 -8 0 -15 7 -15
15 0 8 7 15 15 15 8 0 15 -7 15 -15z m210 -75 c0 -73 -3 -90 -15 -90 -12 0
-15 17 -15 90 0 73 3 90 15 90 12 0 15 -17 15 -90z m-3063 63 c4 -10 11 -22
17 -26 8 -6 7 -10 -1 -14 -16 -6 -17 -79 -2 -89 16 -10 -6 -28 -25 -21 -12 5
-16 20 -16 56 0 27 -5 51 -10 53 -7 2 -6 13 2 30 15 32 26 35 35 11z m1317 -5
c8 -13 6 -21 -7 -36 -16 -18 -16 -20 -1 -33 13 -11 18 -11 21 -1 9 24 25 12
20 -15 -3 -15 -1 -36 4 -45 7 -14 6 -18 -5 -18 -8 0 -17 4 -21 10 -3 6 -15 5
-30 -2 -52 -24 -104 33 -65 72 11 11 15 22 9 31 -12 20 -11 25 7 44 20 19 53
16 68 -7z m-1402 -30 c11 -8 18 -32 20 -66 3 -44 0 -52 -14 -52 -10 0 -18 5
-18 10 0 6 -8 5 -20 -2 -26 -17 -55 0 -55 33 0 19 7 26 38 33 47 12 49 31 2
22 -36 -7 -44 1 -23 22 16 16 50 15 70 0z m216 0 c5 -7 12 -37 14 -65 4 -47 3
-53 -13 -53 -11 0 -19 5 -19 12 0 9 -3 9 -12 0 -18 -18 -46 -14 -58 9 -14 26
0 45 41 54 42 10 37 29 -6 21 -36 -7 -44 1 -23 22 16 16 63 15 76 0z m367 -8
c22 -24 12 -39 -15 -22 -33 21 -50 15 -50 -17 0 -37 15 -47 46 -30 31 16 42 5
19 -21 -18 -20 -50 -26 -72 -12 -32 20 -32 94 0 114 22 14 54 8 72 -12z m75
-45 c0 -51 -3 -65 -15 -65 -12 0 -15 14 -15 65 0 51 3 65 15 65 12 0 15 -14
15 -65z m120 45 c34 -34 26 -50 -26 -50 -32 0 -44 -4 -41 -12 3 -8 20 -12 48
-11 l44 3 -24 -20 c-13 -11 -32 -20 -42 -20 -27 0 -59 35 -59 65 0 30 32 65
60 65 11 0 29 -9 40 -20z m148 8 c18 -15 16 -118 -2 -118 -11 0 -16 14 -18 48
-3 39 -6 47 -23 47 -17 0 -20 -8 -23 -47 -2 -34 -7 -48 -18 -48 -11 0 -14 15
-14 64 l0 63 43 0 c23 1 48 -4 55 -9z m137 -8 c22 -24 12 -39 -15 -22 -33 21
-50 15 -50 -17 0 -37 15 -47 46 -30 31 16 42 5 19 -21 -18 -20 -50 -26 -72
-12 -32 20 -32 94 0 114 22 14 54 8 72 -12z m127 3 c10 -9 18 -24 18 -35 0
-14 -8 -18 -40 -18 -30 0 -40 -4 -40 -16 0 -14 7 -15 40 -10 44 7 47 5 24 -18
-35 -36 -94 -6 -94 47 0 57 52 86 92 50z m653 -3 c36 -40 9 -110 -42 -110 -30
0 -63 34 -63 65 0 55 69 85 105 45z m197 8 c9 -7 19 -23 23 -35 6 -22 3 -23
-40 -23 -33 0 -45 -4 -42 -12 2 -8 19 -12 41 -11 43 3 45 -16 3 -31 -37 -13
-77 15 -77 54 0 53 54 87 92 58z m143 -8 c22 -24 12 -39 -15 -22 -33 21 -50
15 -50 -17 0 -37 15 -47 46 -30 31 16 42 5 19 -21 -18 -20 -50 -26 -72 -12
-32 20 -32 94 0 114 22 14 54 8 72 -12z m75 -31 c0 -47 2 -50 23 -47 19 3 22
10 25 51 2 33 7 47 18 47 11 0 14 -15 14 -65 0 -51 -3 -65 -15 -65 -8 0 -15 5
-15 11 0 8 -5 8 -15 -1 -8 -7 -25 -10 -40 -6 -23 6 -25 11 -25 66 0 47 3 60
15 60 11 0 15 -12 15 -51z m262 39 c11 -8 18 -32 20 -66 3 -44 0 -52 -14 -52
-10 0 -18 5 -18 10 0 6 -8 5 -20 -2 -26 -17 -55 0 -55 33 0 19 7 26 38 33 47
12 49 31 2 22 -36 -7 -44 1 -23 22 16 16 50 15 70 0z m78 0 c0 -9 3 -9 12 0
16 16 28 15 28 -1 0 -7 -9 -18 -20 -25 -15 -9 -20 -23 -20 -52 0 -29 -4 -40
-15 -40 -12 0 -15 14 -15 65 0 51 3 65 15 65 8 0 15 -5 15 -12z m340 -53 c0
-51 -3 -65 -15 -65 -12 0 -15 14 -15 65 0 51 3 65 15 65 12 0 15 -14 15 -65z
m130 45 c11 -11 20 -31 20 -45 0 -55 -69 -85 -105 -45 -55 60 27 148 85 90z
m215 0 c36 -40 9 -110 -42 -110 -30 0 -63 34 -63 65 0 55 69 85 105 45z m113
8 c9 -9 12 -9 12 0 0 7 7 12 15 12 22 0 21 -142 -1 -164 -19 -20 -54 -20 -80
-2 -26 19 -10 33 20 17 26 -15 46 -8 46 15 0 10 -7 13 -24 8 -48 -12 -77 66
-39 108 19 21 34 23 51 6z m113 -28 c15 -50 26 -51 35 -4 6 32 27 54 39 42 3
-2 -9 -43 -27 -91 -27 -76 -34 -87 -54 -87 -13 0 -24 5 -24 10 0 6 7 10 15 10
20 0 19 30 -5 90 -24 61 -25 70 -5 70 8 0 19 -17 26 -40z m-3695 -450 c1 -14
5 -33 9 -43 11 -26 -12 -47 -51 -47 l-34 0 0 61 0 60 38 -3 c32 -3 37 -7 38
-28z m298 8 c-1 -13 -3 -41 -5 -63 l-2 -40 -6 45 c-4 25 -3 53 1 63 12 23 15
22 12 -5z m1436 -36 c0 -57 0 -58 -27 -56 -16 1 -31 2 -35 3 -5 0 -8 16 -8 35
0 35 17 50 45 40 10 -4 15 0 15 15 0 12 2 21 5 21 3 0 5 -26 5 -58z m347 -34
c-2 -18 -4 -4 -4 32 0 36 2 50 4 33 2 -18 2 -48 0 -65z m437 70 c-1 -13 -3
-41 -5 -63 l-2 -40 -6 45 c-4 25 -3 53 1 63 12 23 15 22 12 -5z m256 -36 c0
-57 0 -58 -27 -56 -16 1 -31 2 -35 3 -5 0 -8 16 -8 35 0 35 17 50 45 40 10 -4
15 0 15 15 0 12 2 21 5 21 3 0 5 -26 5 -58z m121 -3 c-1 -75 -11 -74 -11 1 0
35 3 60 6 57 4 -3 6 -30 5 -58z m2179 3 c0 -57 0 -58 -27 -56 -16 1 -31 2 -35
3 -5 0 -8 16 -8 35 0 35 17 50 45 40 10 -4 15 0 15 15 0 12 2 21 5 21 3 0 5
-26 5 -58z m697 -34 c-2 -18 -4 -4 -4 32 0 36 2 50 4 33 2 -18 2 -48 0 -65z
m-5064 23 c1 -28 -1 -51 -4 -51 -8 0 -16 84 -11 100 8 22 14 1 15 -49z m790 0
c1 -28 -1 -51 -4 -51 -8 0 -16 84 -11 100 8 22 14 1 15 -49z m1360 0 c1 -28
-1 -51 -4 -51 -8 0 -16 84 -11 100 8 22 14 1 15 -49z m220 0 c2 -55 -10 -57
-13 -1 -3 48 -1 64 6 57 3 -3 7 -28 7 -56z m950 0 c2 -55 -10 -57 -13 -1 -3
48 -1 64 6 57 3 -3 7 -28 7 -56z m1210 0 c1 -28 -1 -51 -4 -51 -8 0 -16 84
-11 100 8 22 14 1 15 -49z m136 31 c-12 -5 -11 -69 1 -75 6 -3 5 -4 -2 -3 -7
1 -15 21 -18 43 -8 51 -3 66 15 50 7 -7 9 -13 4 -15z m160 0 c-12 -5 -11 -69
1 -75 6 -3 5 -4 -2 -3 -7 1 -15 21 -18 43 -8 51 -3 66 15 50 7 -7 9 -13 4 -15z
m-5492 -59 c-2 -16 -4 -5 -4 22 0 28 2 40 4 28 2 -13 2 -35 0 -50z m81 55 c30
-30 -2 -93 -36 -71 -21 13 -27 50 -12 69 15 17 32 18 48 2z m39 -55 c-2 -16
-4 -5 -4 22 0 28 2 40 4 28 2 -13 2 -35 0 -50z m89 17 l2 -45 -7 40 c-4 26
-11 40 -21 40 -10 0 -17 -14 -21 -40 l-6 -40 -2 46 c-1 44 0 46 27 45 25 -1
27 -4 28 -46z m135 26 c11 -24 -2 -66 -21 -66 -27 0 -40 15 -40 45 0 48 42 62
61 21z m40 -24 c-4 -54 -11 -53 -11 3 0 27 3 45 7 41 4 -4 6 -24 4 -44z m102
37 c1 -2 0 -22 -4 -44 l-6 -40 -2 43 c-1 36 -4 43 -18 40 -12 -2 -20 -16 -24
-43 l-6 -40 -2 47 c-1 45 0 46 29 44 16 -1 31 -4 33 -7z m43 -40 c1 -35 1 -37
-3 -9 -3 19 -10 41 -16 49 -10 11 -9 13 3 9 10 -3 15 -19 16 -49z m95 3 c3
-28 2 -41 -5 -39 -6 2 -10 14 -8 27 2 12 0 20 -5 18 -4 -3 -17 -8 -28 -12 -20
-7 -20 -8 -1 -22 11 -8 15 -14 9 -14 -6 0 -16 6 -22 14 -12 15 -2 27 32 39 24
9 11 30 -14 24 -11 -3 -16 -1 -13 5 3 5 16 8 27 6 18 -2 23 -12 28 -46z m76
-19 c-2 -16 -4 -5 -4 22 0 28 2 40 4 28 2 -13 2 -35 0 -50z m80 47 c4 -12 3
-13 -5 -1 -15 21 -42 5 -42 -24 0 -29 27 -45 41 -24 6 10 9 11 9 1 0 -19 -28
-26 -45 -12 -29 24 -11 85 24 78 8 -2 16 -10 18 -18z m79 9 c4 -7 0 -9 -14 -5
-31 10 -37 -13 -7 -24 17 -7 25 -16 23 -28 -4 -21 -49 -23 -56 -2 -4 12 -2 13
9 3 18 -18 39 -16 39 2 0 8 -6 15 -12 15 -7 0 -19 4 -27 9 -12 8 -12 12 -2 25
16 19 37 21 47 5z m81 -56 c-2 -16 -4 -5 -4 22 0 28 2 40 4 28 2 -13 2 -35 0
-50z m79 56 c4 -7 0 -9 -14 -5 -31 10 -37 -13 -7 -24 17 -7 25 -16 23 -28 -4
-21 -49 -23 -56 -2 -4 12 -2 13 9 3 18 -18 39 -16 39 2 0 8 -6 15 -12 15 -7 0
-19 4 -27 9 -12 8 -12 12 -2 25 16 19 37 21 47 5z m134 -34 c6 -40 5 -41 -25
-40 -23 0 -30 4 -30 20 0 12 7 20 18 21 12 1 13 1 2 -3 -21 -6 -19 -35 3 -31
21 4 31 68 10 68 -8 0 -19 -5 -26 -12 -8 -8 -12 -9 -12 -1 0 13 19 22 40 20 9
-2 17 -17 20 -42z m86 -5 l2 -45 -7 40 c-4 26 -11 40 -21 40 -10 0 -17 -14
-21 -40 l-6 -40 -2 46 c-1 44 0 46 27 45 25 -1 27 -4 28 -46z m81 -17 c-2 -16
-4 -5 -4 22 0 28 2 40 4 28 2 -13 2 -35 0 -50z m89 17 l2 -45 -7 40 c-4 26
-11 40 -21 40 -10 0 -17 -14 -21 -40 l-6 -40 -2 46 c-1 44 0 46 27 45 25 -1
27 -4 28 -46z m134 31 c15 -29 13 -31 -21 -31 -20 0 -29 -4 -26 -12 2 -7 14
-13 26 -12 13 0 18 -3 12 -9 -18 -18 -51 3 -51 32 0 47 40 69 60 32z m41 -29
c-4 -54 -11 -53 -11 3 0 27 3 45 7 41 4 -4 6 -24 4 -44z m136 -19 c-2 -16 -4
-5 -4 22 0 28 2 40 4 28 2 -13 2 -35 0 -50z m77 58 c4 -5 -3 -7 -14 -4 -27 7
-26 -19 1 -32 25 -12 27 -26 5 -40 -11 -7 -20 -5 -33 9 -17 18 -17 18 4 5 17
-10 25 -11 34 -2 10 10 6 15 -14 22 -26 10 -35 30 -20 44 9 10 31 9 37 -2z
m87 -8 c13 -15 12 -15 -9 -2 -20 12 -24 12 -32 -1 -5 -8 -10 -19 -10 -25 0 -5
5 -17 10 -25 8 -13 12 -13 32 -1 21 13 22 13 9 -2 -19 -24 -40 -21 -52 7 -8
17 -8 29 0 45 14 25 34 27 52 4z m36 -50 c-2 -16 -4 -5 -4 22 0 28 2 40 4 28
2 -13 2 -35 0 -50z m80 55 c25 -20 10 -78 -21 -78 -5 0 -2 6 8 13 24 18 18 62
-9 62 -17 0 -20 -7 -22 -48 -2 -71 -13 -71 -13 -1 0 54 2 60 22 61 12 1 28 -3
35 -9z m80 -55 c-2 -16 -4 -5 -4 22 0 28 2 40 4 28 2 -13 2 -35 0 -50z m33 12
l-8 -40 -1 50 c-1 29 3 45 8 40 5 -6 6 -28 1 -50z m49 41 c7 -8 11 -30 8 -48
l-4 -33 -1 37 c-1 23 -8 41 -19 47 -10 6 -13 11 -7 11 6 0 17 -6 23 -14z m91
-31 c6 -40 5 -41 -25 -40 -23 0 -30 4 -30 20 0 12 7 20 18 21 12 1 13 1 2 -3
-21 -6 -19 -35 3 -31 21 4 31 68 10 68 -8 0 -19 -5 -26 -12 -8 -8 -12 -9 -12
-1 0 13 19 22 40 20 9 -2 17 -17 20 -42z m41 -3 c-4 -54 -11 -53 -11 3 0 27 3
45 7 41 4 -4 6 -24 4 -44z m71 -13 c12 -8 -9 -59 -24 -59 -10 0 -9 3 1 9 9 6
12 18 8 37 -17 79 -17 80 -6 49 7 -16 16 -33 21 -36z m18 24 c-11 -17 -11 -17
-6 0 3 10 6 24 7 30 0 9 2 9 5 0 3 -7 0 -20 -6 -30z m127 -30 c-2 -16 -4 -5
-4 22 0 28 2 40 4 28 2 -13 2 -35 0 -50z m77 61 c9 -3 16 -15 16 -25 0 -15 -7
-19 -32 -19 -30 0 -31 -1 -16 -17 14 -13 20 -14 32 -3 9 7 16 8 16 2 0 -8 -22
-22 -35 -22 -9 0 -35 33 -35 45 0 12 26 45 35 45 2 0 10 -3 19 -6z m312 -45
c1 -44 1 -44 -3 -4 -3 22 -10 44 -16 48 -8 6 -7 7 3 4 10 -2 15 -18 16 -48z
m95 3 c3 -28 2 -41 -5 -39 -6 2 -10 14 -8 27 2 12 0 20 -5 18 -4 -3 -17 -8
-28 -12 -20 -7 -20 -8 -1 -22 11 -8 15 -14 9 -14 -6 0 -16 6 -22 14 -12 15 -2
27 32 39 24 9 11 30 -14 24 -11 -3 -16 -1 -13 5 3 5 16 8 27 6 18 -2 23 -12
28 -46z m144 -27 c16 0 21 9 26 40 l6 40 2 -45 c1 -40 -2 -46 -21 -47 -33 -3
-48 15 -47 56 l2 36 6 -40 c5 -31 10 -40 26 -40z m111 64 c4 -7 0 -9 -14 -5
-31 10 -37 -13 -7 -24 17 -7 25 -16 23 -28 -4 -21 -49 -23 -56 -2 -4 12 -2 13
9 3 18 -18 39 -16 39 2 0 8 -6 15 -12 15 -7 0 -19 4 -27 9 -12 8 -12 12 -2 25
16 19 37 21 47 5z m82 -1 c21 -21 13 -38 -18 -38 -16 0 -30 -5 -30 -10 0 -18
29 -23 48 -9 16 12 15 11 -1 -6 -21 -24 -50 -11 -55 24 -6 40 30 65 56 39z
m82 1 c12 -8 10 -9 -7 -4 -31 9 -39 -13 -8 -25 17 -7 25 -16 23 -28 -4 -21
-49 -23 -56 -2 -5 13 -3 13 12 1 12 -10 20 -11 28 -3 8 8 4 14 -15 23 -26 12
-34 29 -20 42 9 10 26 8 43 -4z m131 -6 c13 -15 12 -15 -9 -2 -20 12 -24 12
-32 -1 -5 -8 -10 -19 -10 -25 0 -5 5 -17 10 -25 8 -13 12 -13 32 -1 21 13 22
13 9 -2 -19 -24 -40 -21 -52 7 -8 17 -8 29 0 45 14 25 34 27 52 4z m73 11 c10
-4 16 -18 16 -39 0 -31 -13 -45 -41 -45 -19 0 -32 46 -20 69 12 22 20 25 45
15z m143 -14 c4 -12 3 -13 -5 -1 -15 22 -32 3 -33 -37 l-2 -37 -6 40 c-4 26
-11 40 -21 40 -10 0 -17 -14 -21 -40 l-6 -40 -2 46 -1 46 47 -1 c32 -1 48 -6
50 -16z m90 8 c30 -24 3 -88 -31 -75 -10 4 -16 -2 -19 -16 -2 -12 -5 5 -6 38
-1 56 1 61 21 62 12 1 28 -3 35 -9z m63 -63 c10 0 17 14 21 40 l6 40 2 -46 c1
-44 0 -46 -26 -45 -26 1 -28 4 -29 46 l-2 45 7 -40 c4 -26 11 -40 21 -40z
m158 63 c21 -21 13 -38 -18 -38 -16 0 -30 -5 -30 -10 0 -18 29 -23 48 -9 16
12 15 11 -1 -6 -21 -24 -50 -11 -55 24 -6 40 30 65 56 39z m43 -36 c-4 -54
-11 -53 -11 3 0 27 3 45 7 41 4 -4 6 -24 4 -44z m133 39 c4 -5 -3 -7 -14 -4
-27 7 -26 -19 1 -32 25 -12 27 -26 5 -40 -11 -7 -20 -5 -33 9 -17 18 -17 18 4
5 17 -10 25 -11 34 -2 10 10 6 15 -14 22 -26 10 -35 30 -20 44 9 10 31 9 37
-2z m87 -8 c13 -15 12 -15 -9 -2 -20 12 -24 12 -32 -1 -5 -8 -10 -19 -10 -25
0 -5 5 -17 10 -25 8 -13 12 -13 32 -1 21 13 22 13 9 -2 -19 -24 -40 -21 -52 7
-8 17 -8 29 0 45 14 25 34 27 52 4z m36 -50 c-2 -16 -4 -5 -4 22 0 28 2 40 4
28 2 -13 2 -35 0 -50z m81 55 c21 -21 13 -38 -18 -38 -16 0 -30 -5 -30 -10 0
-18 29 -23 48 -9 16 12 15 11 -1 -6 -21 -24 -50 -11 -55 24 -6 40 30 65 56 39z
m42 -43 l-8 -40 -1 50 c-1 29 3 45 8 40 5 -6 6 -28 1 -50z m49 41 c7 -8 11
-30 8 -48 l-4 -33 -1 37 c-1 23 -8 41 -19 47 -10 6 -13 11 -7 11 6 0 17 -6 23
-14z m89 -6 c4 -13 3 -13 -11 -2 -21 18 -37 7 -37 -24 0 -28 28 -44 41 -23 6
10 9 11 9 1 0 -19 -28 -26 -45 -12 -29 24 -11 85 24 78 8 -2 17 -10 19 -18z
m80 8 c21 -21 13 -38 -18 -38 -16 0 -30 -5 -30 -10 0 -18 29 -23 48 -9 16 12
15 11 -1 -6 -21 -24 -50 -11 -55 24 -6 40 30 65 56 39z m130 0 c14 -19 21 -79
8 -75 -6 2 -11 19 -11 38 -1 28 -5 34 -23 33 -11 0 -19 3 -16 8 8 12 30 10 42
-4z m98 -38 c1 -35 0 -37 -3 -10 -6 47 -20 60 -39 36 -11 -16 -14 -17 -14 -4
0 18 16 28 40 25 11 -2 15 -15 16 -47z m210 39 c4 -7 0 -9 -14 -5 -31 10 -37
-13 -7 -24 17 -7 25 -16 23 -28 -4 -21 -49 -23 -56 -2 -4 12 -2 13 9 3 18 -18
39 -16 39 2 0 8 -6 15 -12 15 -7 0 -19 4 -27 9 -12 8 -12 12 -2 25 16 19 37
21 47 5z m134 -34 c6 -40 5 -41 -25 -40 -23 0 -30 4 -30 20 0 12 7 20 18 21
12 1 13 1 2 -3 -21 -6 -19 -35 3 -31 21 4 31 68 10 68 -8 0 -19 -5 -26 -12 -8
-8 -12 -9 -12 -1 0 13 19 22 40 20 9 -2 17 -17 20 -42z m154 36 c4 -5 -3 -7
-14 -4 -14 4 -20 0 -20 -11 0 -9 8 -16 20 -16 25 0 38 -29 19 -41 -18 -12 -42
-7 -45 9 -1 7 0 8 3 2 6 -13 30 -13 38 0 3 6 -5 14 -19 20 -25 9 -34 29 -19
43 9 10 31 9 37 -2z m83 -58 c-2 -16 -4 -5 -4 22 0 28 2 40 4 28 2 -13 2 -35
0 -50z m77 61 c9 -3 16 -11 16 -17 0 -7 -4 -7 -12 1 -17 17 -26 15 -37 -7 -7
-13 -6 -24 3 -37 12 -15 16 -16 30 -5 9 7 16 9 16 3 0 -13 -26 -23 -45 -16
-22 9 -23 62 -2 76 15 9 12 9 31 2z m96 -39 c6 -40 5 -41 -25 -40 -23 0 -30 4
-30 20 0 12 7 20 18 21 12 1 13 1 2 -3 -21 -6 -19 -35 3 -31 21 4 31 68 10 68
-8 0 -19 -5 -26 -12 -8 -8 -12 -9 -12 -1 0 13 19 22 40 20 9 -2 17 -17 20 -42z
m-884 -7 c-19 -11 -19 -11 -1 -24 17 -13 17 -14 2 -14 -23 0 -34 29 -16 41 8
5 19 9 24 9 6 -1 1 -6 -9 -12z m-4621 -203 c17 0 20 -7 21 -45 l2 -45 -7 40
c-4 26 -11 40 -21 40 -10 0 -17 -14 -21 -40 -5 -33 -6 -29 -7 25 0 36 3 56 6
45 4 -11 16 -20 27 -20z m205 -23 c0 -52 -2 -58 -22 -59 -29 -3 -48 14 -48 41
0 23 17 46 34 46 5 0 2 -6 -8 -13 -24 -18 -18 -62 9 -62 20 0 21 3 24 83 1 12
3 22 6 22 3 0 5 -26 5 -58z m597 -34 c-2 -18 -4 -4 -4 32 0 36 2 50 4 33 2
-18 2 -48 0 -65z m1276 35 c2 -41 5 -48 22 -48 27 0 33 44 9 62 -10 7 -13 13
-8 13 17 0 34 -23 34 -46 0 -27 -19 -44 -48 -41 -20 1 -22 7 -22 61 0 70 11
70 13 -1z m214 -35 c-2 -18 -4 -4 -4 32 0 36 2 50 4 33 2 -18 2 -48 0 -65z
m553 34 c0 -52 -2 -58 -22 -59 -29 -3 -48 14 -48 41 0 23 17 46 34 46 5 0 2
-6 -8 -13 -24 -18 -18 -62 9 -62 20 0 21 3 24 83 1 12 3 22 6 22 3 0 5 -26 5
-58z m-2471 20 c-12 -5 -11 -69 1 -75 6 -3 5 -4 -2 -3 -7 1 -15 21 -18 43 -8
51 -3 66 15 50 7 -7 9 -13 4 -15z m1204 -31 c2 -55 -10 -57 -13 -1 -3 48 -1
64 6 57 3 -3 7 -28 7 -56z m420 0 c1 -28 -1 -51 -4 -51 -8 0 -16 84 -11 100 8
22 14 1 15 -49z m-2240 28 c1 -2 0 -22 -4 -44 l-6 -40 -2 43 c-1 36 -4 43 -18
40 -12 -2 -20 -16 -24 -43 l-6 -40 -2 47 c-1 45 0 46 29 44 16 -1 31 -4 33 -7z
m43 -40 c1 -35 1 -37 -3 -9 -3 19 -10 41 -16 49 -10 11 -9 13 3 9 10 -3 15
-19 16 -49z m82 39 c21 -21 13 -38 -18 -38 -16 0 -30 -5 -30 -10 0 -18 29 -23
48 -9 16 12 15 11 -1 -6 -21 -24 -50 -11 -55 24 -6 40 30 65 56 39z m57 2 c-3
-5 -12 -7 -20 -3 -21 7 -19 13 6 13 11 0 18 -4 14 -10z m159 4 c22 -8 22 -70
0 -78 -26 -10 -34 -7 -45 18 -8 17 -8 29 0 45 12 22 20 25 45 15z m182 -5 c4
-7 0 -9 -14 -5 -31 10 -37 -13 -7 -24 17 -7 25 -16 23 -28 -4 -21 -49 -23 -56
-2 -4 12 -2 13 9 3 18 -18 39 -16 39 2 0 8 -6 15 -12 15 -7 0 -19 4 -27 9 -12
8 -12 12 -2 25 16 19 37 21 47 5z m172 -1 c30 -30 -2 -93 -36 -71 -21 13 -27
50 -12 69 15 17 32 18 48 2z m143 -36 c3 -28 2 -41 -5 -39 -6 2 -10 14 -8 27
2 12 0 20 -5 18 -4 -3 -17 -8 -28 -12 -20 -7 -20 -8 -1 -22 11 -8 15 -14 9
-14 -6 0 -16 6 -22 14 -12 15 -2 27 32 39 24 9 11 30 -14 24 -11 -3 -16 -1
-13 5 3 5 16 8 27 6 18 -2 23 -12 28 -46z m85 -2 c1 -35 0 -37 -3 -10 -6 47
-20 60 -39 36 -11 -16 -14 -17 -14 -4 0 18 16 28 40 25 11 -2 15 -15 16 -47z
m82 38 c14 -19 21 -79 8 -75 -6 2 -11 19 -11 38 -1 28 -5 34 -23 33 -11 0 -19
3 -16 8 8 12 30 10 42 -4z m110 -48 c-11 -33 -24 -60 -30 -60 -7 0 -6 5 1 14
8 10 8 21 1 40 -13 36 -12 58 2 26 l10 -25 14 33 c23 53 24 36 2 -28z m92 51
c0 -4 -9 -20 -20 -34 -26 -33 -25 -35 8 -40 22 -3 20 -4 -10 -6 -21 0 -38 2
-38 5 0 3 12 20 26 39 l25 33 -23 5 c-20 4 -20 4 5 6 15 0 27 -3 27 -8z m74 3
c9 -3 16 -15 16 -25 0 -15 -7 -19 -32 -19 -30 0 -31 -1 -16 -17 14 -13 20 -14
32 -3 9 7 16 8 16 2 0 -8 -22 -22 -35 -22 -9 0 -35 33 -35 45 0 12 26 45 35
45 2 0 10 -3 19 -6z m140 -6 c3 -7 7 -27 9 -43 5 -29 4 -31 -26 -30 -25 0 -32
4 -32 20 0 12 7 20 18 21 12 1 13 1 2 -3 -21 -6 -19 -35 3 -31 11 2 18 14 20
37 3 30 1 33 -17 28 -12 -3 -19 -1 -15 4 8 13 34 11 38 -3z m92 -38 l1 -45 -4
43 c-3 34 -8 43 -21 40 -11 -2 -19 -17 -23 -43 l-6 -40 -2 46 c-1 44 0 46 27
45 25 -1 27 -4 28 -46z m78 44 c9 -3 16 -13 16 -22 0 -13 -3 -12 -15 4 -15 19
-15 19 -35 -5 -22 -25 -26 -21 -10 10 11 20 19 23 44 13z m93 -61 c-2 -16 -4
-5 -4 22 0 28 2 40 4 28 2 -13 2 -35 0 -50z m89 17 l2 -45 -7 40 c-4 26 -11
40 -21 40 -10 0 -17 -14 -21 -40 l-6 -40 -2 46 c-1 44 0 46 27 45 25 -1 27 -4
28 -46z m132 38 c21 -21 13 -38 -18 -38 -16 0 -30 -5 -30 -10 0 -18 29 -23 48
-9 16 12 15 11 -1 -6 -21 -24 -50 -11 -55 24 -6 40 30 65 56 39z m43 -36 c-4
-54 -11 -53 -11 3 0 27 3 45 7 41 4 -4 6 -24 4 -44z m102 40 c4 -1 7 -17 7
-36 0 -35 -17 -50 -44 -40 -9 4 -16 -3 -19 -18 -2 -13 -5 4 -6 38 -1 61 -1 61
27 59 15 -1 30 -3 35 -3z m37 -47 l-8 -40 -1 50 c-1 29 3 45 8 40 5 -6 6 -28
1 -50z m98 43 c21 -21 13 -38 -18 -38 -16 0 -30 -5 -30 -10 0 -18 29 -23 48
-9 16 12 15 11 -1 -6 -21 -24 -50 -11 -55 24 -6 40 30 65 56 39z m219 -55 c-2
-16 -4 -5 -4 22 0 28 2 40 4 28 2 -13 2 -35 0 -50z m77 61 c10 -4 16 -18 16
-39 0 -31 -13 -45 -41 -45 -19 0 -32 46 -20 69 12 22 20 25 45 15z m134 -6
c30 -30 -2 -93 -36 -71 -21 13 -27 50 -12 69 15 17 32 18 48 2z m90 -48 c-2
-44 -7 -55 -22 -58 -10 -2 -22 0 -28 6 -6 6 0 8 16 5 20 -4 26 -1 26 11 0 10
-4 15 -9 12 -21 -13 -41 7 -41 39 0 34 10 43 43 42 15 -1 17 -9 15 -57z m39
-7 c-2 -16 -4 -5 -4 22 0 28 2 40 4 28 2 -13 2 -35 0 -50z m80 47 c4 -12 3
-13 -5 -1 -15 21 -42 5 -42 -24 0 -29 27 -45 41 -24 6 10 9 11 9 1 0 -19 -28
-26 -45 -12 -29 24 -11 85 24 78 8 -2 16 -10 18 -18z m81 8 c14 -19 21 -79 8
-75 -6 2 -11 19 -11 38 -1 28 -5 34 -23 33 -11 0 -19 3 -16 8 8 12 30 10 42
-4z m256 0 c3 -7 7 -27 9 -43 5 -29 4 -31 -26 -30 -25 0 -32 4 -32 20 0 12 7
20 18 21 12 1 13 1 2 -3 -21 -6 -19 -35 3 -31 11 2 18 14 20 37 3 30 1 33 -17
28 -12 -3 -19 -1 -15 4 8 13 34 11 38 -3z m61 2 c-3 -5 -12 -7 -20 -3 -21 7
-19 13 6 13 11 0 18 -4 14 -10z m86 -38 c3 -28 2 -41 -5 -39 -6 2 -10 14 -8
27 2 12 0 20 -5 18 -4 -3 -17 -8 -28 -12 -20 -7 -20 -8 -1 -22 11 -8 15 -14 9
-14 -6 0 -16 6 -22 14 -12 15 -2 27 32 39 24 9 11 30 -14 24 -11 -3 -16 -1
-13 5 3 5 16 8 27 6 18 -2 23 -12 28 -46z m-2335 -4 c-19 -11 -19 -11 -1 -24
17 -13 17 -14 2 -14 -23 0 -34 29 -16 41 8 5 19 9 24 9 6 -1 1 -6 -9 -12z
m1900 0 c-19 -11 -19 -11 -1 -24 17 -13 17 -14 2 -14 -23 0 -34 29 -16 41 8 5
19 9 24 9 6 -1 1 -6 -9 -12z m-1277 -29 c-19 -12 -41 -7 -47 11 -5 13 -3 13
13 0 16 -13 19 -13 29 3 6 10 12 13 15 6 2 -6 -3 -15 -10 -20z m-1414 1 c3 -5
1 -10 -4 -10 -6 0 -11 5 -11 10 0 6 2 10 4 10 3 0 8 -4 11 -10z m3040 0 c3 -5
1 -10 -4 -10 -6 0 -11 5 -11 10 0 6 2 10 4 10 3 0 8 -4 11 -10z m-3034 -426
c17 -21 0 -48 -34 -52 -19 -2 -27 -10 -30 -30 -2 -15 -5 1 -6 36 l-1 62 29 0
c16 0 34 -7 42 -16z m181 -18 c26 8 38 -10 37 -56 l-1 -35 -8 38 c-4 20 -10
40 -13 44 -12 11 -36 -18 -40 -50 -2 -18 -4 -3 -4 33 0 36 2 55 4 42 4 -18 9
-21 25 -16z m704 -14 c1 -23 4 -49 8 -57 3 -8 1 -15 -4 -15 -5 0 -10 10 -12
23 -2 15 -11 23 -30 25 -22 3 -27 -1 -31 -25 -2 -15 -5 0 -6 35 l-1 63 38 -3
c36 -3 37 -4 38 -46z m490 18 c1 -14 5 -33 9 -43 11 -26 -12 -47 -51 -47 l-34
0 0 61 0 60 38 -3 c32 -3 37 -7 38 -28z m235 14 c17 -21 0 -48 -34 -52 -19 -2
-27 -10 -30 -30 -2 -15 -5 1 -6 36 l-1 62 29 0 c16 0 34 -7 42 -16z m181 -18
c26 8 38 -10 37 -56 l-1 -35 -8 38 c-4 20 -10 40 -13 44 -12 11 -36 -18 -40
-50 -2 -18 -4 -3 -4 33 0 36 2 55 4 42 4 -18 9 -21 25 -16z m658 -22 l17 -49
17 53 c10 28 22 52 27 52 5 0 8 -28 7 -62 l-1 -63 -6 50 -6 50 -14 -48 c-16
-56 -30 -56 -47 -1 l-12 39 -1 -42 c-2 -67 -21 -50 -21 18 0 74 16 75 40 3z
m292 22 c26 8 38 -10 37 -56 l-1 -35 -8 38 c-4 20 -10 40 -13 44 -12 11 -36
-18 -40 -50 -2 -18 -4 -3 -4 33 0 36 2 55 4 42 4 -18 9 -21 25 -16z m363 -77
c29 -6 29 -7 -7 -8 l-38 -1 2 63 1 62 6 -55 c6 -51 8 -55 36 -61z m1026 101
c10 -6 19 -16 19 -22 0 -6 -9 -3 -19 6 -36 33 -82 -4 -66 -53 8 -25 41 -36 60
-21 20 16 19 28 -2 33 -14 4 -12 5 5 6 17 1 22 -4 22 -23 0 -19 -7 -26 -31
-31 -57 -13 -92 53 -52 97 18 20 36 23 64 8z m-4008 -59 c1 -28 -1 -51 -4 -51
-8 0 -16 84 -11 100 8 22 14 1 15 -49z m1616 31 c-13 -5 -11 -56 4 -71 10 -11
9 -13 -3 -9 -9 3 -17 21 -20 45 -8 51 -3 66 15 50 7 -7 9 -13 4 -15z m-1697
-24 l12 -33 13 34 c23 55 24 29 1 -32 -12 -33 -27 -57 -35 -57 -12 0 -12 2 1
15 13 14 13 20 0 56 -16 47 -16 49 -8 49 3 0 10 -15 16 -32z m256 20 c30 -30
2 -86 -38 -73 -15 5 -20 15 -20 40 0 41 32 59 58 33z m88 -38 l1 -45 -4 43
c-3 34 -8 43 -21 40 -11 -2 -19 -17 -23 -43 l-6 -40 -2 46 c-1 44 0 46 27 45
25 -1 27 -4 28 -46z m1031 -17 c-2 -16 -4 -5 -4 22 0 28 2 40 4 28 2 -13 2
-35 0 -50z m81 55 c30 -30 2 -86 -38 -73 -15 5 -20 15 -20 40 0 41 32 59 58
33z m157 -20 l7 -32 20 35 c14 25 17 27 12 9 -17 -61 -32 -94 -45 -99 -12 -4
-12 -2 0 12 11 14 11 24 -2 62 -9 25 -12 45 -7 45 5 0 12 -14 15 -32z m253 20
c30 -30 2 -86 -38 -73 -15 5 -20 15 -20 40 0 41 32 59 58 33z m99 -38 l1 -45
-7 38 c-4 20 -11 40 -14 44 -12 11 -36 -18 -40 -50 -3 -25 -4 -21 -5 14 -2 46
-2 46 31 45 31 -1 32 -2 34 -46z m603 4 l6 -41 -36 1 c-28 1 -35 5 -35 21 0
12 9 21 23 25 26 6 26 25 0 24 -9 0 -15 3 -12 8 3 5 16 8 27 6 17 -2 23 -12
27 -44z m78 26 c4 -13 3 -13 -11 -2 -21 18 -37 7 -37 -23 0 -29 16 -41 35 -25
10 8 15 9 15 2 0 -16 -18 -24 -40 -17 -15 5 -20 15 -20 40 0 18 6 36 13 38 20
9 40 3 45 -13z m119 -47 c-2 -16 -4 -5 -4 22 0 28 2 40 4 28 2 -13 2 -35 0
-50z m89 17 l2 -45 -7 40 c-4 26 -11 40 -21 40 -10 0 -17 -14 -21 -40 l-6 -40
-2 46 c-1 44 0 46 27 45 25 -1 27 -4 28 -46z m95 23 c7 -21 5 -23 -21 -23 -30
0 -40 -13 -20 -25 6 -4 18 -1 27 7 14 11 16 11 11 -2 -2 -8 -14 -16 -26 -18
-30 -5 -49 36 -32 67 15 28 50 24 61 -6z m217 15 c21 -21 13 -38 -18 -38 -30
0 -40 -13 -20 -25 6 -4 18 -1 27 7 14 11 16 11 11 -2 -8 -26 -47 -24 -57 2
-17 47 24 89 57 56z m93 -34 l5 -42 -35 2 c-45 1 -48 25 -8 44 20 10 26 17 18
25 -7 7 -15 6 -26 -3 -8 -7 -15 -8 -15 -3 0 16 13 24 35 21 15 -2 21 -13 26
-44z m56 33 c-9 -7 -18 -28 -20 -47 -3 -31 -4 -30 -5 10 -2 40 1 46 19 47 19
2 19 0 6 -10z m79 -37 l1 -45 -4 43 c-3 34 -8 43 -21 40 -11 -2 -19 -17 -23
-43 l-6 -40 -2 46 c-1 44 0 46 27 45 25 -1 27 -4 28 -46z m41 -17 c-2 -16 -4
-5 -4 22 0 28 2 40 4 28 2 -13 2 -35 0 -50z m89 17 l2 -45 -7 40 c-8 53 -35
55 -39 3 -4 -53 -22 -48 -22 6 0 44 0 44 33 43 31 -2 32 -4 33 -47z m94 7 c0
-21 -5 -47 -10 -58 -11 -20 -45 -26 -55 -9 -4 7 2 9 19 4 20 -5 26 -2 26 11 0
9 -4 14 -9 11 -19 -12 -41 7 -41 33 0 34 15 49 46 47 21 -1 24 -6 24 -39z
m564 37 c9 -3 16 -15 16 -25 0 -15 -7 -19 -32 -19 -30 0 -31 -1 -16 -17 14
-13 20 -14 32 -3 10 7 16 8 16 2 0 -17 -39 -25 -55 -12 -18 15 -19 52 -3 68
14 14 20 14 42 6z m102 -44 l2 -45 -7 40 c-8 53 -35 55 -39 3 -4 -53 -22 -48
-22 6 0 44 0 44 33 43 31 -2 32 -4 33 -47z m82 38 c30 -30 2 -86 -38 -73 -15
5 -20 15 -20 40 0 41 32 59 58 33z m138 -38 l2 -45 -7 40 c-4 26 -11 40 -21
40 -10 0 -17 -14 -21 -40 l-6 -40 -2 37 c-1 35 -15 57 -28 44 -3 -3 -9 -23
-13 -43 l-8 -38 -1 46 -1 46 53 -1 52 -1 1 -45z m44 5 c0 -25 -4 -45 -10 -45
-5 0 -10 20 -10 45 0 25 5 45 10 45 6 0 10 -20 10 -45z m78 25 c5 -13 3 -13
-11 -2 -21 18 -37 7 -37 -23 0 -30 16 -41 37 -23 14 11 16 11 11 -2 -2 -8 -14
-16 -26 -18 -30 -5 -49 36 -32 67 13 25 50 25 58 1z m67 10 c3 -5 0 -7 -8 -4
-8 3 -18 1 -22 -5 -3 -6 5 -15 20 -21 34 -13 30 -45 -4 -45 -14 0 -25 6 -27
13 -1 7 0 8 3 2 6 -13 30 -13 38 0 3 6 -5 14 -19 20 -25 9 -34 29 -19 43 10
10 31 8 38 -3z"/>
<path d="M650 7680 l0 -61 32 3 c65 6 65 110 0 116 l-32 3 0 -61z"/>
<path d="M3640 7720 c0 -18 5 -21 33 -18 20 2 32 8 32 18 0 10 -12 16 -32 18
-28 3 -33 0 -33 -18z"/>
<path d="M3640 7645 c0 -24 3 -26 33 -23 24 2 32 8 32 23 0 15 -8 21 -32 23
-30 3 -33 1 -33 -23z"/>
<path d="M2222 7719 c2 -6 8 -10 13 -10 5 0 11 4 13 10 2 6 -4 11 -13 11 -9 0
-15 -5 -13 -11z"/>
<path d="M2213 7659 c-16 -16 -5 -39 17 -39 27 0 32 15 12 34 -13 11 -21 13
-29 5z"/>
<path d="M833 7649 c-13 -5 -23 -13 -23 -19 0 -16 40 -12 47 5 8 21 2 24 -24
14z"/>
<path d="M1041 7649 c-18 -7 -21 -13 -13 -21 14 -14 42 -3 42 17 0 8 -1 15 -2
14 -2 0 -14 -5 -27 -10z"/>
<path d="M1585 7680 c-4 -6 7 -10 25 -10 18 0 29 4 25 10 -3 6 -15 10 -25 10
-10 0 -22 -4 -25 -10z"/>
<path d="M2000 7680 c0 -5 11 -10 25 -10 14 0 25 5 25 10 0 6 -11 10 -25 10
-14 0 -25 -4 -25 -10z"/>
<path d="M2646 7672 c-10 -30 4 -53 28 -50 31 4 30 62 -1 66 -14 2 -23 -3 -27
-16z"/>
<path d="M2855 7680 c-4 -6 5 -10 19 -10 14 0 26 5 26 10 0 6 -9 10 -19 10
-11 0 -23 -4 -26 -10z"/>
<path d="M3353 7649 c-13 -5 -23 -13 -23 -19 0 -16 40 -12 47 5 8 21 2 24 -24
14z"/>
<path d="M3874 7676 c-10 -26 1 -51 22 -54 24 -3 38 20 29 49 -7 22 -43 25
-51 5z"/>
<path d="M4086 7672 c-10 -30 4 -53 28 -50 31 4 30 62 -1 66 -14 2 -23 -3 -27
-16z"/>
<path d="M4234 7676 c-10 -26 0 -51 21 -51 16 0 20 7 20 30 0 33 -30 49 -41
21z"/>
<path d="M630 7231 c0 -16 6 -21 26 -21 33 0 30 33 -4 38 -17 3 -22 -2 -22
-17z"/>
<path d="M630 7175 c0 -20 5 -25 24 -25 25 0 36 15 29 38 -3 6 -16 12 -29 12
-19 0 -24 -5 -24 -25z"/>
<path d="M2367 7214 c-11 -11 -8 -52 4 -60 6 -3 18 1 27 10 13 12 14 21 6 33
-12 20 -27 26 -37 17z"/>
<path d="M3407 7214 c-11 -11 -8 -52 4 -60 6 -3 18 1 27 10 13 12 14 21 6 33
-12 20 -27 26 -37 17z"/>
<path d="M5707 7214 c-11 -11 -8 -52 4 -60 6 -3 18 1 27 10 13 12 14 21 6 33
-12 20 -27 26 -37 17z"/>
<path d="M764 7206 c-10 -26 0 -51 21 -51 16 0 20 7 20 30 0 33 -30 49 -41 21z"/>
<path d="M1027 7214 c-11 -11 -8 -52 4 -60 6 -3 18 1 27 10 13 12 14 21 6 33
-12 20 -27 26 -37 17z"/>
<path d="M2227 7213 c-14 -13 -6 -23 19 -23 22 0 25 2 14 15 -14 16 -23 19
-33 8z"/>
<path d="M3280 7205 c-11 -13 -9 -15 15 -15 16 0 25 5 23 12 -7 19 -24 20 -38
3z"/>
<path d="M4017 7205 c-5 -11 0 -15 19 -15 16 0 24 5 22 13 -7 18 -35 20 -41 2z"/>
<path d="M4310 7204 c-10 -11 -11 -20 -3 -32 17 -27 38 -20 38 12 0 34 -16 44
-35 20z"/>
<path d="M4534 7206 c-9 -23 0 -51 17 -54 19 -4 32 23 24 49 -7 22 -33 25 -41
5z"/>
<path d="M4757 7214 c-14 -14 -6 -24 19 -24 16 0 24 5 22 13 -5 14 -31 21 -41
11z"/>
<path d="M5137 7205 c-5 -11 0 -15 19 -15 16 0 24 5 22 13 -7 18 -35 20 -41 2z"/>
<path d="M5397 7214 c-14 -14 -6 -24 19 -24 16 0 24 5 22 13 -5 14 -31 21 -41
11z"/>
<path d="M757 6955 c-5 -11 0 -15 19 -15 16 0 24 5 22 13 -7 18 -35 20 -41 2z"/>
<path d="M980 6954 c-10 -11 -11 -20 -3 -32 17 -27 38 -20 38 12 0 34 -16 44
-35 20z"/>
<path d="M1324 6956 c-10 -26 0 -51 21 -51 16 0 20 7 20 30 0 33 -30 49 -41
21z"/>
<path d="M1920 6955 c-11 -13 -9 -15 15 -15 16 0 25 5 23 12 -7 19 -24 20 -38
3z"/>
<path d="M2537 6964 c-14 -14 -6 -24 19 -24 16 0 24 5 22 13 -5 14 -31 21 -41
11z"/>
<path d="M2680 6954 c-10 -11 -11 -20 -3 -32 17 -27 38 -20 38 12 0 34 -16 44
-35 20z"/>
<path d="M2817 6955 c-5 -11 0 -15 19 -15 16 0 24 5 22 13 -7 18 -35 20 -41 2z"/>
<path d="M3120 6954 c-10 -11 -11 -20 -3 -32 17 -27 38 -20 38 12 0 34 -16 44
-35 20z"/>
<path d="M3244 6956 c-10 -26 0 -51 21 -51 16 0 20 7 20 30 0 33 -30 49 -41
21z"/>
<path d="M3334 6956 c-9 -23 0 -51 16 -51 10 0 15 10 15 29 0 32 -21 47 -31
22z"/>
<path d="M800 6455 c0 -22 4 -26 23 -23 14 2 22 10 22 23 0 13 -8 21 -22 23
-19 3 -23 -1 -23 -23z"/>
<path d="M1680 6455 c0 -23 4 -26 28 -23 19 2 27 9 27 23 0 14 -8 21 -27 23
-24 3 -28 0 -28 -23z"/>
<path d="M2180 6460 c0 -16 5 -21 23 -18 12 2 22 10 22 18 0 8 -10 16 -22 18
-18 3 -23 -2 -23 -18z"/>
<path d="M2180 6405 c0 -22 4 -26 23 -23 14 2 22 10 22 23 0 13 -8 21 -22 23
-19 3 -23 -1 -23 -23z"/>
<path d="M2410 6455 c0 -22 4 -26 23 -23 14 2 22 10 22 23 0 13 -8 21 -22 23
-19 3 -23 -1 -23 -23z"/>
<path d="M1117 6444 c-11 -11 -8 -52 4 -60 6 -3 18 1 27 10 13 12 14 21 6 33
-12 20 -27 26 -37 17z"/>
<path d="M2317 6444 c-11 -11 -8 -52 4 -60 6 -3 18 1 27 10 13 12 14 21 6 33
-12 20 -27 26 -37 17z"/>
<path d="M2727 6444 c-11 -11 -8 -52 4 -60 6 -3 18 1 27 10 13 12 14 21 6 33
-12 20 -27 26 -37 17z"/>
<path d="M3415 6401 c-10 -18 17 -23 33 -7 15 15 15 16 -5 16 -12 0 -24 -4
-28 -9z"/>
<path d="M3807 6444 c-13 -13 -7 -24 14 -24 11 0 19 5 17 12 -5 14 -22 21 -31
12z"/>
<path d="M4027 6444 c-13 -13 -7 -24 14 -24 11 0 19 5 17 12 -5 14 -22 21 -31
12z"/>
<path d="M4110 6394 c0 -9 7 -14 17 -12 25 5 28 28 4 28 -12 0 -21 -6 -21 -16z"/>
<path d="M4464 6436 c-9 -23 0 -51 16 -51 10 0 15 10 15 29 0 32 -21 47 -31
22z"/>
<path d="M5050 6435 c-11 -13 -9 -15 15 -15 16 0 25 5 23 12 -7 19 -24 20 -38
3z"/>
<path d="M5227 6444 c-11 -11 -8 -52 4 -60 6 -3 18 1 27 10 13 12 14 21 6 33
-12 20 -27 26 -37 17z"/>
</g>
</svg>
